{
    "asset" : {
        "generator" : "Khronos glTF Blender I/O v1.3.48",
        "version" : "2.0"
    },
    "scene" : 0,
    "scenes" : [
        {
            "name" : "Scene",
            "nodes" : [
                2
            ]
        }
    ],
    "nodes" : [
        {
            "mesh" : 0,
            "name" : "Inner",
            "scale" : [
                0.5,
                0.5,
                0.5
            ],
            "translation" : [
                0,
                0.5,
                0
            ]
        },
        {
            "mesh" : 1,
            "name" : "Outter",
            "scale" : [
                0.5,
                0.49999988079071045,
                0.49999988079071045
            ],
            "translation" : [
                0,
                0.5,
                0
            ]
        },
        {
            "children" : [
                0,
                1
            ],
            "name" : "Fire"
        }
    ],
    "materials" : [
        {
            "emissiveFactor" : [
                0.7605248093605042,
                0.09758727997541428,
                0.015996314585208893
            ],
            "name" : "FireInner",
            "pbrMetallicRoughness" : {
                "baseColorFactor" : [
                    0.7605248093605042,
                    0.09758727997541428,
                    0.015996314585208893,
                    1
                ],
                "metallicFactor" : 0,
                "roughnessFactor" : 1
            }
        },
        {
            "emissiveFactor" : [
                0.7605246305465698,
                0.2462013214826584,
                0.01599631831049919
            ],
            "name" : "FireOuter",
            "pbrMetallicRoughness" : {
                "baseColorFactor" : [
                    0.7605246305465698,
                    0.2462013214826584,
                    0.01599631831049919,
                    1
                ],
                "metallicFactor" : 0,
                "roughnessFactor" : 1
            }
        }
    ],
    "meshes" : [
        {
            "name" : "Mesh_1",
            "primitives" : [
                {
                    "attributes" : {
                        "POSITION" : 0,
                        "NORMAL" : 1,
                        "TEXCOORD_0" : 2
                    },
                    "indices" : 3,
                    "material" : 0
                }
            ]
        },
        {
            "name" : "Mesh_0",
            "primitives" : [
                {
                    "attributes" : {
                        "POSITION" : 4,
                        "NORMAL" : 5,
                        "TEXCOORD_0" : 6
                    },
                    "indices" : 7,
                    "material" : 1
                }
            ]
        }
    ],
    "accessors" : [
        {
            "bufferView" : 0,
            "componentType" : 5126,
            "count" : 142,
            "max" : [
                0.45818421244621277,
                0.42501822113990784,
                0.4660056531429291
            ],
            "min" : [
                -0.456304669380188,
                -0.7783206701278687,
                -0.4309183359146118
            ],
            "type" : "VEC3"
        },
        {
            "bufferView" : 1,
            "componentType" : 5126,
            "count" : 142,
            "type" : "VEC3"
        },
        {
            "bufferView" : 2,
            "componentType" : 5126,
            "count" : 142,
            "type" : "VEC2"
        },
        {
            "bufferView" : 3,
            "componentType" : 5123,
            "count" : 672,
            "type" : "SCALAR"
        },
        {
            "bufferView" : 4,
            "componentType" : 5126,
            "count" : 142,
            "max" : [
                0.6871070861816406,
                0.8434475064277649,
                0.6771856546401978
            ],
            "min" : [
                -0.6847739815711975,
                -0.87102872133255,
                -0.6561543345451355
            ],
            "type" : "VEC3"
        },
        {
            "bufferView" : 5,
            "componentType" : 5126,
            "count" : 142,
            "type" : "VEC3"
        },
        {
            "bufferView" : 6,
            "componentType" : 5126,
            "count" : 142,
            "type" : "VEC2"
        },
        {
            "bufferView" : 7,
            "componentType" : 5123,
            "count" : 672,
            "type" : "SCALAR"
        }
    ],
    "bufferViews" : [
        {
            "buffer" : 0,
            "byteLength" : 1704,
            "byteOffset" : 0
        },
        {
            "buffer" : 0,
            "byteLength" : 1704,
            "byteOffset" : 1704
        },
        {
            "buffer" : 0,
            "byteLength" : 1136,
            "byteOffset" : 3408
        },
        {
            "buffer" : 0,
            "byteLength" : 1344,
            "byteOffset" : 4544
        },
        {
            "buffer" : 0,
            "byteLength" : 1704,
            "byteOffset" : 5888
        },
        {
            "buffer" : 0,
            "byteLength" : 1704,
            "byteOffset" : 7592
        },
        {
            "buffer" : 0,
            "byteLength" : 1136,
            "byteOffset" : 9296
        },
        {
            "buffer" : 0,
            "byteLength" : 1344,
            "byteOffset" : 10432
        }
    ],
    "buffers" : [
        {
            "byteLength" : 11776,
            "uri" : "fire.bin"
        }
    ]
}
