{
    "asset" : {
        "generator" : "Khronos glTF Blender I/O v1.3.48",
        "version" : "2.0"
    },
    "scene" : 0,
    "scenes" : [
        {
            "name" : "Scene",
            "nodes" : [
                2
            ]
        }
    ],
    "nodes" : [
        {
            "mesh" : 0,
            "name" : "Body",
            "scale" : [
                0.5,
                0.5,
                0.5
            ]
        },
        {
            "mesh" : 1,
            "name" : "Rope",
            "scale" : [
                0.5,
                0.5,
                0.5
            ]
        },
        {
            "children" : [
                0,
                1
            ],
            "name" : "Bomb",
            "translation" : [
                0.0054639303125441074,
                0.5160967111587524,
                0.0036155607085675
            ]
        }
    ],
    "animations" : [
        {
            "channels" : [
                {
                    "sampler" : 0,
                    "target" : {
                        "node" : 2,
                        "path" : "scale"
                    }
                }
            ],
            "name" : "idle",
            "samplers" : [
                {
                    "input" : 8,
                    "interpolation" : "LINEAR",
                    "output" : 9
                }
            ]
        }
    ],
    "materials" : [
        {
            "doubleSided" : true,
            "emissiveFactor" : [
                0,
                0,
                0
            ],
            "name" : "Body",
            "pbrMetallicRoughness" : {
                "baseColorFactor" : [
                    0.021002229303121567,
                    0.03624042496085167,
                    0.07658025622367859,
                    1
                ],
                "metallicFactor" : 0.5,
                "roughnessFactor" : 0.5
            }
        },
        {
            "doubleSided" : true,
            "emissiveFactor" : [
                0,
                0,
                0
            ],
            "name" : "Rope",
            "pbrMetallicRoughness" : {
                "baseColorFactor" : [
                    0.7758224010467529,
                    0.5906189680099487,
                    0.3864295780658722,
                    1
                ],
                "metallicFactor" : 0,
                "roughnessFactor" : 0.8999999761581421
            }
        }
    ],
    "meshes" : [
        {
            "name" : "Icosphere.001",
            "primitives" : [
                {
                    "attributes" : {
                        "POSITION" : 0,
                        "NORMAL" : 1,
                        "TEXCOORD_0" : 2
                    },
                    "indices" : 3,
                    "material" : 0
                }
            ]
        },
        {
            "name" : "Circle.003",
            "primitives" : [
                {
                    "attributes" : {
                        "POSITION" : 4,
                        "NORMAL" : 5,
                        "TEXCOORD_0" : 6
                    },
                    "indices" : 7,
                    "material" : 1
                }
            ]
        }
    ],
    "accessors" : [
        {
            "bufferView" : 0,
            "componentType" : 5126,
            "count" : 805,
            "max" : [
                1.0002132654190063,
                1.1400001049041748,
                0.9999460577964783
            ],
            "min" : [
                -0.9999999403953552,
                -0.9997904300689697,
                -0.9999460577964783
            ],
            "type" : "VEC3"
        },
        {
            "bufferView" : 1,
            "componentType" : 5126,
            "count" : 805,
            "type" : "VEC3"
        },
        {
            "bufferView" : 2,
            "componentType" : 5126,
            "count" : 805,
            "type" : "VEC2"
        },
        {
            "bufferView" : 3,
            "componentType" : 5123,
            "count" : 2958,
            "type" : "SCALAR"
        },
        {
            "bufferView" : 4,
            "componentType" : 5126,
            "count" : 6225,
            "max" : [
                0.9025821685791016,
                1.800084114074707,
                0.1981106996536255
            ],
            "min" : [
                -0.09533953666687012,
                0.9425232410430908,
                -0.09358453750610352
            ],
            "type" : "VEC3"
        },
        {
            "bufferView" : 5,
            "componentType" : 5126,
            "count" : 6225,
            "type" : "VEC3"
        },
        {
            "bufferView" : 6,
            "componentType" : 5126,
            "count" : 6225,
            "type" : "VEC2"
        },
        {
            "bufferView" : 7,
            "componentType" : 5123,
            "count" : 20655,
            "type" : "SCALAR"
        },
        {
            "bufferView" : 8,
            "componentType" : 5126,
            "count" : 25,
            "max" : [
                1
            ],
            "min" : [
                0
            ],
            "type" : "SCALAR"
        },
        {
            "bufferView" : 9,
            "componentType" : 5126,
            "count" : 25,
            "type" : "VEC3"
        }
    ],
    "bufferViews" : [
        {
            "buffer" : 0,
            "byteLength" : 9660,
            "byteOffset" : 0
        },
        {
            "buffer" : 0,
            "byteLength" : 9660,
            "byteOffset" : 9660
        },
        {
            "buffer" : 0,
            "byteLength" : 6440,
            "byteOffset" : 19320
        },
        {
            "buffer" : 0,
            "byteLength" : 5916,
            "byteOffset" : 25760
        },
        {
            "buffer" : 0,
            "byteLength" : 74700,
            "byteOffset" : 31676
        },
        {
            "buffer" : 0,
            "byteLength" : 74700,
            "byteOffset" : 106376
        },
        {
            "buffer" : 0,
            "byteLength" : 49800,
            "byteOffset" : 181076
        },
        {
            "buffer" : 0,
            "byteLength" : 41310,
            "byteOffset" : 230876
        },
        {
            "buffer" : 0,
            "byteLength" : 100,
            "byteOffset" : 272188
        },
        {
            "buffer" : 0,
            "byteLength" : 300,
            "byteOffset" : 272288
        }
    ],
    "buffers" : [
        {
            "byteLength" : 272588,
            "uri" : "data:application/octet-stream;base64,"
        }
    ]
}
