{
    "asset" : {
        "generator" : "Khronos glTF Blender I/O v1.3.48",
        "version" : "2.0"
    },
    "scene" : 0,
    "scenes" : [
        {
            "name" : "Scene",
            "nodes" : [
                0,
                1
            ]
        }
    ],
    "nodes" : [
        {
            "name" : "RootNode"
        },
        {
            "mesh" : 0,
            "name" : "Stone"
        }
    ],
    "materials" : [
        {
            "doubleSided" : true,
            "emissiveFactor" : [
                0,
                0,
                0
            ],
            "name" : "Stone.002",
            "normalTexture" : {
                "index" : 0,
                "texCoord" : 0
            },
            "pbrMetallicRoughness" : {
                "baseColorTexture" : {
                    "index" : 1,
                    "texCoord" : 0
                },
                "metallicFactor" : 0,
                "roughnessFactor" : 0.7763931751251221
            }
        }
    ],
    "meshes" : [
        {
            "name" : "Stone_1_Stone_0.002",
            "primitives" : [
                {
                    "attributes" : {
                        "POSITION" : 0,
                        "NORMAL" : 1,
                        "TEXCOORD_0" : 2,
                        "TEXCOORD_1" : 3
                    },
                    "indices" : 4,
                    "material" : 0
                }
            ]
        }
    ],
    "textures" : [
        {
            "source" : 0
        },
        {
            "source" : 1
        }
    ],
    "images" : [
        {
            "bufferView" : 5,
            "mimeType" : "image/jpeg",
            "name" : "Stone_normal"
        },
        {
            "bufferView" : 6,
            "mimeType" : "image/jpeg",
            "name" : "Stone_baseColor"
        }
    ],
    "accessors" : [
        {
            "bufferView" : 0,
            "componentType" : 5126,
            "count" : 1023,
            "max" : [
                0.49515199661254883,
                0.9604490399360657,
                0.4951341152191162
            ],
            "min" : [
                -0.47882992029190063,
                -0.004345924127846956,
                -0.480145126581192
            ],
            "type" : "VEC3"
        },
        {
            "bufferView" : 1,
            "componentType" : 5126,
            "count" : 1023,
            "type" : "VEC3"
        },
        {
            "bufferView" : 2,
            "componentType" : 5126,
            "count" : 1023,
            "type" : "VEC2"
        },
        {
            "bufferView" : 3,
            "componentType" : 5126,
            "count" : 1023,
            "type" : "VEC2"
        },
        {
            "bufferView" : 4,
            "componentType" : 5123,
            "count" : 1023,
            "type" : "SCALAR"
        }
    ],
    "bufferViews" : [
        {
            "buffer" : 0,
            "byteLength" : 12276,
            "byteOffset" : 0
        },
        {
            "buffer" : 0,
            "byteLength" : 12276,
            "byteOffset" : 12276
        },
        {
            "buffer" : 0,
            "byteLength" : 8184,
            "byteOffset" : 24552
        },
        {
            "buffer" : 0,
            "byteLength" : 8184,
            "byteOffset" : 32736
        },
        {
            "buffer" : 0,
            "byteLength" : 2046,
            "byteOffset" : 40920
        },
        {
            "buffer" : 0,
            "byteLength" : 6104,
            "byteOffset" : 42968
        },
        {
            "buffer" : 0,
            "byteLength" : 3536,
            "byteOffset" : 49072
        }
    ],
    "buffers" : [
        {
            "byteLength" : 52608,
            "uri" : "data:application/octet-stream;base64,"
        }
    ]
}
