{
    "asset" : {
        "generator" : "Khronos glTF Blender I/O v1.3.48",
        "version" : "2.0"
    },
    "scene" : 0,
    "scenes" : [
        {
            "name" : "Scene",
            "nodes" : [
                6
            ]
        }
    ],
    "nodes" : [
        {
            "mesh" : 0,
            "name" : "Mesh_0"
        },
        {
            "mesh" : 1,
            "name" : "Mesh_1"
        },
        {
            "children" : [
                0,
                1
            ],
            "name" : "BrickBlock_0"
        },
        {
            "children" : [
                2
            ],
            "name" : "GLTF_SceneRootNode",
            "rotation" : [
                0.7071068286895752,
                0,
                0,
                0.7071068286895752
            ]
        },
        {
            "children" : [
                3
            ],
            "name" : "root"
        },
        {
            "children" : [
                4
            ],
            "name" : "RootNode (model correction matrix)",
            "rotation" : [
                0,
                6.8016856857866514e-06,
                0,
                1
            ]
        },
        {
            "children" : [
                5
            ],
            "name" : "RootNode (gltf orientation matrix)",
            "rotation" : [
                -0.7071068286895752,
                0,
                0,
                0.7071068286895752
            ]
        }
    ],
    "materials" : [
        {
            "doubleSided" : true,
            "emissiveFactor" : [
                0,
                0,
                0
            ],
            "name" : "Interior",
            "pbrMetallicRoughness" : {
                "baseColorFactor" : [
                    0,
                    0,
                    0,
                    1
                ],
                "metallicFactor" : 0,
                "roughnessFactor" : 1
            }
        },
        {
            "doubleSided" : true,
            "emissiveFactor" : [
                0,
                0,
                0
            ],
            "name" : "Clay",
            "pbrMetallicRoughness" : {
                "baseColorFactor" : [
                    0.3250109851360321,
                    0.09302390366792679,
                    0.03143860027194023,
                    1
                ],
                "metallicFactor" : 0,
                "roughnessFactor" : 0.6000000238418579
            }
        }
    ],
    "meshes" : [
        {
            "name" : "Mesh_0.001",
            "primitives" : [
                {
                    "attributes" : {
                        "POSITION" : 0,
                        "NORMAL" : 1,
                        "TEXCOORD_0" : 2
                    },
                    "indices" : 3,
                    "material" : 0
                }
            ]
        },
        {
            "name" : "Mesh_1.001",
            "primitives" : [
                {
                    "attributes" : {
                        "POSITION" : 4,
                        "NORMAL" : 5,
                        "TEXCOORD_0" : 6
                    },
                    "indices" : 7,
                    "material" : 1
                }
            ]
        }
    ],
    "accessors" : [
        {
            "bufferView" : 0,
            "componentType" : 5126,
            "count" : 591,
            "max" : [
                1,
                1,
                1
            ],
            "min" : [
                -1,
                -1,
                -1
            ],
            "type" : "VEC3"
        },
        {
            "bufferView" : 1,
            "componentType" : 5126,
            "count" : 591,
            "type" : "VEC3"
        },
        {
            "bufferView" : 2,
            "componentType" : 5126,
            "count" : 591,
            "type" : "VEC2"
        },
        {
            "bufferView" : 3,
            "componentType" : 5123,
            "count" : 972,
            "type" : "SCALAR"
        },
        {
            "bufferView" : 4,
            "componentType" : 5126,
            "count" : 4139,
            "max" : [
                1.0984445810317993,
                1.0984445810317993,
                1.0984445810317993
            ],
            "min" : [
                -1.0984445810317993,
                -1.0984445810317993,
                -1.0984445810317993
            ],
            "type" : "VEC3"
        },
        {
            "bufferView" : 5,
            "componentType" : 5126,
            "count" : 4139,
            "type" : "VEC3"
        },
        {
            "bufferView" : 6,
            "componentType" : 5126,
            "count" : 4139,
            "type" : "VEC2"
        },
        {
            "bufferView" : 7,
            "componentType" : 5123,
            "count" : 13257,
            "type" : "SCALAR"
        }
    ],
    "bufferViews" : [
        {
            "buffer" : 0,
            "byteLength" : 7092,
            "byteOffset" : 0
        },
        {
            "buffer" : 0,
            "byteLength" : 7092,
            "byteOffset" : 7092
        },
        {
            "buffer" : 0,
            "byteLength" : 4728,
            "byteOffset" : 14184
        },
        {
            "buffer" : 0,
            "byteLength" : 1944,
            "byteOffset" : 18912
        },
        {
            "buffer" : 0,
            "byteLength" : 49668,
            "byteOffset" : 20856
        },
        {
            "buffer" : 0,
            "byteLength" : 49668,
            "byteOffset" : 70524
        },
        {
            "buffer" : 0,
            "byteLength" : 33112,
            "byteOffset" : 120192
        },
        {
            "buffer" : 0,
            "byteLength" : 26514,
            "byteOffset" : 153304
        }
    ],
    "buffers" : [
        {
            "byteLength" : 179820,
            "uri" : "data:application/octet-stream;base64,"
        }
    ]
}
